<svg id="Group_44" data-name="Group 44" xmlns="http://www.w3.org/2000/svg" xmlns:xlink="http://www.w3.org/1999/xlink" width="89.929" height="72.881" viewBox="0 0 89.929 72.881">
  <defs>
    <clipPath id="clip-path">
      <rect id="Rectangle_30" data-name="Rectangle 30" width="89.929" height="72.881" fill="none"/>
    </clipPath>
  </defs>
  <path id="Path_87" data-name="Path 87" d="M50.885,46.465V83.324L15.716,75.279V45.148L34.9,47.378l15.988-18" transform="translate(-5.92 -11.067)" fill="#f4f1ec"/>
  <g id="Group_33" data-name="Group 33" transform="translate(0 0)">
    <g id="Group_32" data-name="Group 32" clip-path="url(#clip-path)">
      <path id="Path_88" data-name="Path 88" d="M50.885,46.465V83.324L15.716,75.279V45.148L34.9,47.378l15.988-18" transform="translate(-5.92 -11.067)" fill="none" stroke="#373929" stroke-linecap="round" stroke-linejoin="round" stroke-width="2"/>
    </g>
  </g>
  <path id="Path_89" data-name="Path 89" d="M107.315,46.142V76.273L72.139,84.318v-52.3" transform="translate(-27.175 -12.06)" fill="#f4f1ec"/>
  <g id="Group_35" data-name="Group 35" transform="translate(0 0)">
    <g id="Group_34" data-name="Group 34" clip-path="url(#clip-path)">
      <path id="Path_90" data-name="Path 90" d="M107.315,46.142V76.273L72.139,84.318v-52.3" transform="translate(-27.175 -12.06)" fill="none" stroke="#373929" stroke-linecap="round" stroke-linejoin="round" stroke-width="2"/>
    </g>
  </g>
  <path id="Path_91" data-name="Path 91" d="M72.139,29.377l15.988,18,19.188-2.23" transform="translate(-27.175 -11.066)" fill="#f4f1ec"/>
  <path id="Path_92" data-name="Path 92" d="M72.139,29.377l15.988,18,19.188-2.23" transform="translate(-27.175 -11.066)" fill="none" stroke="#373929" stroke-linecap="round" stroke-linejoin="round" stroke-width="2"/>
  <path id="Path_93" data-name="Path 93" d="M116.481,42.1l-9.166,1.066L88.128,45.4,72.14,27.4l35.175-3.278Z" transform="translate(-27.175 -9.085)" fill="#f4f1ec"/>
  <g id="Group_37" data-name="Group 37" transform="translate(0 0)">
    <g id="Group_36" data-name="Group 36" clip-path="url(#clip-path)">
      <path id="Path_94" data-name="Path 94" d="M116.481,42.1l-9.166,1.066L88.128,45.4,72.14,27.4l35.175-3.278Z" transform="translate(-27.175 -9.085)" fill="none" stroke="#373929" stroke-linecap="round" stroke-linejoin="round" stroke-width="2"/>
    </g>
  </g>
  <path id="Path_95" data-name="Path 95" d="M45.342,27.4l-15.988,18-19.181-2.23L1,42.1l9.172-17.983Z" transform="translate(-0.377 -9.085)" fill="#f4f1ec"/>
  <g id="Group_39" data-name="Group 39" transform="translate(0 0)">
    <g id="Group_38" data-name="Group 38" clip-path="url(#clip-path)">
      <path id="Path_96" data-name="Path 96" d="M45.342,27.4l-15.988,18-19.181-2.23L1,42.1l9.172-17.983Z" transform="translate(-0.377 -9.085)" fill="none" stroke="#373929" stroke-linecap="round" stroke-linejoin="round" stroke-width="2"/>
    </g>
  </g>
  <path id="Path_97" data-name="Path 97" d="M86.06,21.095,50.885,24.373,15.715,21.095l35.169-5Z" transform="translate(-5.92 -6.062)" fill="#f4f1ec"/>
  <path id="Path_98" data-name="Path 98" d="M86.06,21.095,50.885,24.373,15.715,21.095l35.169-5Z" transform="translate(-5.92 -6.062)" fill="none" stroke="#373929" stroke-linecap="round" stroke-linejoin="round" stroke-width="2"/>
  <path id="Path_99" data-name="Path 99" d="M10.719,15.41,2.451,4.223,35.637,1l10.251,9.407Z" transform="translate(-0.923 -0.377)" fill="#f4f1ec"/>
  <g id="Group_41" data-name="Group 41" transform="translate(0 0)">
    <g id="Group_40" data-name="Group 40" clip-path="url(#clip-path)">
      <path id="Path_100" data-name="Path 100" d="M10.719,15.41,2.451,4.223,35.637,1l10.251,9.407Z" transform="translate(-0.923 -0.377)" fill="none" stroke="#373929" stroke-linecap="round" stroke-linejoin="round" stroke-width="2"/>
    </g>
  </g>
  <path id="Path_101" data-name="Path 101" d="M107.309,15.41l8.267-11.187L82.391,1,72.14,10.408Z" transform="translate(-27.175 -0.377)" fill="#f4f1ec"/>
  <g id="Group_43" data-name="Group 43" transform="translate(0 0)">
    <g id="Group_42" data-name="Group 42" clip-path="url(#clip-path)">
      <path id="Path_102" data-name="Path 102" d="M107.309,15.41l8.267-11.187L82.391,1,72.14,10.408Z" transform="translate(-27.175 -0.377)" fill="none" stroke="#373929" stroke-linecap="round" stroke-linejoin="round" stroke-width="2"/>
    </g>
  </g>
  <path id="Path_103" data-name="Path 103" d="M40.112,80.355l13,2.225v8.2l-13-2.576Z" transform="translate(-15.11 -30.27)" fill="#f4f1ec"/>
  <path id="Path_104" data-name="Path 104" d="M40.112,80.355l13,2.225v8.2l-13-2.576Z" transform="translate(-15.11 -30.27)" fill="none" stroke="#373929" stroke-linecap="round" stroke-linejoin="round" stroke-width="2"/>
</svg>
