<svg xmlns="http://www.w3.org/2000/svg" xmlns:xlink="http://www.w3.org/1999/xlink" width="86.016" height="83.724" viewBox="0 0 86.016 83.724">
  <defs>
    <clipPath id="clip-path">
      <rect id="Rectangle_36" data-name="Rectangle 36" width="86.016" height="83.724" fill="none"/>
    </clipPath>
  </defs>
  <g id="Group_46" data-name="Group 46" transform="translate(0)">
    <g id="Group_45" data-name="Group 45" transform="translate(0)" clip-path="url(#clip-path)">
      <path id="Path_105" data-name="Path 105" d="M86.885,42.235A41.179,41.179,0,0,1,45.776,83.477c-.22,0-.446,0-.666-.007-.13,0-.261,0-.391-.007-.494-.014-.989-.034-1.483-.069A40.878,40.878,0,0,1,16.667,71.358,25.252,25.252,0,0,0,26.581,69.3a22.515,22.515,0,0,0,2.883-1.432l4.565,5.454A63.637,63.637,0,0,0,44.718,58.879v-.95c.172,0,.35,0,.522.007A71.827,71.827,0,0,0,50.341,46c-1.7.558-3.6,1.075-5.623,1.55a207.824,207.824,0,0,1-23.465,3.691c.261,2,.6,3.96,1.03,5.84-7.27.847-12.433-.668-15.674-2.279A41.226,41.226,0,0,1,43.236,1.082c.494-.034.989-.055,1.483-.069.131-.007.261-.007.391-.007C45.33,1,45.556,1,45.776,1A40.826,40.826,0,0,1,68.767,8.045l.007.007a28.259,28.259,0,0,1,4.25,11.865,21.8,21.8,0,0,1-1.8,11.686c6.433-1.75,10.312-3.45,12.632-4.938a41.326,41.326,0,0,1,3.027,15.57" transform="translate(-1.758 -0.377)" fill="#f4f1ec"/>
      <path id="Path_106" data-name="Path 106" d="M86.885,42.235A41.179,41.179,0,0,1,45.776,83.477c-.22,0-.446,0-.666-.007-.13,0-.261,0-.391-.007-.494-.014-.989-.034-1.483-.069A40.878,40.878,0,0,1,16.667,71.358,25.252,25.252,0,0,0,26.581,69.3a22.515,22.515,0,0,0,2.883-1.432l4.565,5.454A63.637,63.637,0,0,0,44.718,58.879v-.95c.172,0,.35,0,.522.007A71.827,71.827,0,0,0,50.341,46c-1.7.558-3.6,1.075-5.623,1.55a207.824,207.824,0,0,1-23.465,3.691c.261,2,.6,3.96,1.03,5.84-7.27.847-12.433-.668-15.674-2.279A41.226,41.226,0,0,1,43.236,1.082c.494-.034.989-.055,1.483-.069.131-.007.261-.007.391-.007C45.33,1,45.556,1,45.776,1A40.826,40.826,0,0,1,68.767,8.045l.007.007a28.259,28.259,0,0,1,4.25,11.865,21.8,21.8,0,0,1-1.8,11.686c6.433-1.75,10.312-3.45,12.632-4.938A41.326,41.326,0,0,1,86.885,42.235Z" transform="translate(-1.758 -0.377)" fill="none" stroke="#373929" stroke-linecap="round" stroke-linejoin="round" stroke-width="2"/>
      <path id="Path_107" data-name="Path 107" d="M54.395,1a13.1,13.1,0,0,0-1.483.083c-8.616.9-16,9.571-19.806,21.981a65.769,65.769,0,0,0-2.753,19.171,69.814,69.814,0,0,0,.577,9.007" transform="translate(-11.434 -0.377)" fill="#f4f1ec"/>
      <path id="Path_108" data-name="Path 108" d="M54.395,1a13.1,13.1,0,0,0-1.483.083c-8.616.9-16,9.571-19.806,21.981a65.769,65.769,0,0,0-2.753,19.171,69.814,69.814,0,0,0,.577,9.007" transform="translate(-11.434 -0.377)" fill="none" stroke="#373929" stroke-linecap="round" stroke-linejoin="round" stroke-width="2"/>
      <path id="Path_109" data-name="Path 109" d="M39.825,110.586c4.106,8.085,10.016,13.4,16.655,14.089a13.1,13.1,0,0,0,1.483.083" transform="translate(-15.002 -41.658)" fill="#f4f1ec"/>
      <path id="Path_110" data-name="Path 110" d="M39.825,110.586c4.106,8.085,10.016,13.4,16.655,14.089a13.1,13.1,0,0,0,1.483.083" transform="translate(-15.002 -41.658)" fill="none" stroke="#373929" stroke-linecap="round" stroke-linejoin="round" stroke-width="2"/>
      <path id="Path_111" data-name="Path 111" d="M92.974,42.235a65.817,65.817,0,0,1-2.753,19.178C86.253,74.346,78.4,83.222,69.316,83.47c-.13.007-.261.007-.391.007V57.929c.171,0,.35,0,.522.007A71.772,71.772,0,0,0,74.548,46c-1.7.558-3.6,1.075-5.623,1.55V1c.13,0,.261,0,.391.007,9.083.248,16.936,9.124,20.9,22.057a65.769,65.769,0,0,1,2.753,19.171" transform="translate(-25.964 -0.377)" fill="#f4f1ec"/>
      <path id="Path_112" data-name="Path 112" d="M92.974,42.235a65.817,65.817,0,0,1-2.753,19.178C86.253,74.346,78.4,83.222,69.316,83.47c-.13.007-.261.007-.391.007V57.929c.171,0,.35,0,.522.007A71.772,71.772,0,0,0,74.548,46c-1.7.558-3.6,1.075-5.623,1.55V1c.13,0,.261,0,.391.007,9.083.248,16.936,9.124,20.9,22.057A65.769,65.769,0,0,1,92.974,42.235Z" transform="translate(-25.964 -0.377)" fill="none" stroke="#373929" stroke-linecap="round" stroke-linejoin="round" stroke-width="2"/>
      <path id="Path_113" data-name="Path 113" d="M102.5,102.283a40.863,40.863,0,0,0-11.966-6.459,63.614,63.614,0,0,0-20.774-3.477" transform="translate(-26.279 -34.787)" fill="none" stroke="#373929" stroke-linecap="round" stroke-linejoin="round" stroke-width="2"/>
      <path id="Path_114" data-name="Path 114" d="M77.933,29.963a46.117,46.117,0,0,1-7.01,3.147,64.058,64.058,0,0,1-21.3,3.484A64.019,64.019,0,0,1,28.339,33.11,42.343,42.343,0,0,1,17.7,27.67" transform="translate(-6.667 -10.423)" fill="none" stroke="#373929" stroke-linecap="round" stroke-linejoin="round" stroke-width="2"/>
      <line id="Line_3" data-name="Line 3" x2="82.219" transform="translate(2.908 41.861)" fill="#f4f1ec"/>
      <line id="Line_4" data-name="Line 4" x2="82.219" transform="translate(2.908 41.861)" fill="none" stroke="#373929" stroke-linecap="round" stroke-linejoin="round" stroke-width="2"/>
      <path id="Path_115" data-name="Path 115" d="M30.366,87.446l-4.243-5.516s1.209-.1,3.213-.323c.261,2,.6,3.96,1.03,5.84" transform="translate(-9.841 -30.741)" fill="#f4f1ec"/>
      <path id="Path_116" data-name="Path 116" d="M30.366,87.446l-4.243-5.516s1.209-.1,3.213-.323C29.6,83.61,29.94,85.566,30.366,87.446Z" transform="translate(-9.841 -30.741)" fill="none" stroke="#373929" stroke-linecap="round" stroke-linejoin="round" stroke-width="2"/>
      <path id="Path_117" data-name="Path 117" d="M69.447,92.341c-.171.317-.343.633-.522.944v-.951c.171,0,.35,0,.522.007" transform="translate(-25.964 -34.782)" fill="#f4f1ec"/>
      <path id="Path_118" data-name="Path 118" d="M69.447,92.341c-.171.317-.343.633-.522.944v-.951C69.1,92.334,69.275,92.334,69.447,92.341Z" transform="translate(-25.964 -34.782)" fill="none" stroke="#373929" stroke-linecap="round" stroke-linejoin="round" stroke-width="2"/>
      <path id="Path_119" data-name="Path 119" d="M122.6,30.919c-2.321,1.487-6.2,3.188-12.632,4.937a21.8,21.8,0,0,0,1.8-11.686,28.278,28.278,0,0,0-4.25-11.865l-.007-.007c13.195-.317,18.117,13.531,18.117,13.531s1.593,2.121-3.027,5.089" transform="translate(-40.498 -4.631)" fill="#f4f1ec"/>
      <path id="Path_120" data-name="Path 120" d="M122.6,30.919c-2.321,1.487-6.2,3.188-12.632,4.937a21.8,21.8,0,0,0,1.8-11.686,28.278,28.278,0,0,0-4.25-11.865l-.007-.007c13.195-.317,18.117,13.531,18.117,13.531S127.218,27.951,122.6,30.919Z" transform="translate(-40.498 -4.631)" fill="none" stroke="#373929" stroke-linecap="round" stroke-linejoin="round" stroke-width="2"/>
      <path id="Path_121" data-name="Path 121" d="M48.961,73.2a71.84,71.84,0,0,1-5.1,11.934c-.171-.007-.522.944-.522.944a63.625,63.625,0,0,1-10.688,14.447L28.084,95.07A22.569,22.569,0,0,1,25.2,96.5a25.244,25.244,0,0,1-9.914,2.052,18.577,18.577,0,0,1-4.662-.647C1.653,89.072,1,79.087,1,79.087A15.3,15.3,0,0,0,5.229,82c3.241,1.612,8.4,3.126,15.674,2.279-.426-1.88-.769-3.835-1.03-5.839a207.933,207.933,0,0,0,23.464-3.691c2.019-.476,3.928-.992,5.623-1.55" transform="translate(-0.377 -27.574)" fill="#f4f1ec"/>
      <path id="Path_122" data-name="Path 122" d="M48.961,73.2a71.84,71.84,0,0,1-5.1,11.934c-.171-.007-.522.944-.522.944a63.625,63.625,0,0,1-10.688,14.447L28.084,95.07A22.569,22.569,0,0,1,25.2,96.5a25.244,25.244,0,0,1-9.914,2.052,18.577,18.577,0,0,1-4.662-.647C1.653,89.072,1,79.087,1,79.087A15.3,15.3,0,0,0,5.229,82c3.241,1.612,8.4,3.126,15.674,2.279-.426-1.88-.769-3.835-1.03-5.839a207.933,207.933,0,0,0,23.464-3.691C45.356,74.273,47.265,73.757,48.961,73.2Z" transform="translate(-0.377 -27.574)" fill="none" stroke="#373929" stroke-linecap="round" stroke-linejoin="round" stroke-width="2"/>
    </g>
  </g>
</svg>
