<svg id="Group_120" data-name="Group 120" xmlns="http://www.w3.org/2000/svg" xmlns:xlink="http://www.w3.org/1999/xlink" width="82.174" height="115.999" viewBox="0 0 82.174 115.999">
  <defs>
    <clipPath id="clip-path">
      <rect id="Rectangle_70" data-name="Rectangle 70" width="82.174" height="115.999" fill="none"/>
    </clipPath>
  </defs>
  <g id="Group_119" data-name="Group 119" clip-path="url(#clip-path)">
    <path id="Path_210" data-name="Path 210" d="M74.576,21.642a8,8,0,0,0-7.488-4.483H41.639a8,8,0,0,0-7.489,4.483L22.938,48.2v70.3H85.789V48.2ZM54.12,44.017a7.408,7.408,0,1,1,7.408-7.408,7.408,7.408,0,0,1-7.408,7.408" transform="translate(-4.422 -3.308)" fill="#fff"/>
    <path id="Path_211" data-name="Path 211" d="M74.576,21.642a8,8,0,0,0-7.488-4.483H41.639a8,8,0,0,0-7.489,4.483L22.938,48.2v70.3H85.789V48.2ZM54.12,44.017a7.408,7.408,0,1,1,7.408-7.408A7.408,7.408,0,0,1,54.12,44.017Z" transform="translate(-4.422 -3.308)" fill="none" stroke="#373929" stroke-linecap="round" stroke-linejoin="round" stroke-width="2"/>
    <path id="Path_212" data-name="Path 212" d="M68.429,77.307a8.62,8.62,0,1,0-8.62,8.62" transform="translate(-9.867 -13.24)" fill="none" stroke="#373929" stroke-linecap="round" stroke-linejoin="round" stroke-width="2"/>
    <path id="Path_213" data-name="Path 213" d="M51.189,98.664a8.62,8.62,0,1,0,8.62-8.62" transform="translate(-9.867 -17.357)" fill="none" stroke="#373929" stroke-linecap="round" stroke-linejoin="round" stroke-width="2"/>
    <line id="Line_33" data-name="Line 33" y1="4.823" transform="translate(49.942 50.624)" fill="#f4f1ec"/>
    <line id="Line_34" data-name="Line 34" y1="4.823" transform="translate(49.942 50.624)" fill="none" stroke="#373929" stroke-linecap="round" stroke-linejoin="round" stroke-width="2"/>
    <line id="Line_35" data-name="Line 35" y1="4.823" transform="translate(49.942 90.851)" fill="#f4f1ec"/>
    <line id="Line_36" data-name="Line 36" y1="4.823" transform="translate(49.942 90.851)" fill="none" stroke="#373929" stroke-linecap="round" stroke-linejoin="round" stroke-width="2"/>
    <path id="Path_214" data-name="Path 214" d="M51.507,26.269s4.836-.521,1.706-12.888c0,0-.14-.266-.433-.718C50.858,9.694,42.422-1.331,24.5,1.444,5.136,4.442-5.886,30.471,5.778,34.751S17.733,16.551,26.8,11.037s17.791,3.008,17.791,3.008" transform="translate(-0.193 -0.193)" fill="none" stroke="#373929" stroke-linecap="round" stroke-linejoin="round" stroke-width="2"/>
  </g>
</svg>
