<svg xmlns="http://www.w3.org/2000/svg" xmlns:xlink="http://www.w3.org/1999/xlink" width="140" height="140" viewBox="0 0 140 140">
  <defs>
    <clipPath id="clip-path">
      <rect id="Rectangle_53" data-name="Rectangle 53" width="140" height="140" fill="none"/>
    </clipPath>
  </defs>
  <g id="Group_75" data-name="Group 75" clip-path="url(#clip-path)">
    <path id="Path_164" data-name="Path 164" d="M138.607,69.8A68.8,68.8,0,1,1,69.8,1a68.8,68.8,0,0,1,68.8,68.8" transform="translate(0.197 0.197)" fill="#f4f1ec"/>
    <circle id="Ellipse_5" data-name="Ellipse 5" cx="68.803" cy="68.803" r="68.803" transform="translate(1.197 1.197)" fill="none" stroke="#373929" stroke-linecap="round" stroke-linejoin="round" stroke-width="2"/>
    <path id="Path_165" data-name="Path 165" d="M92.947,62.551l6.679,36.069a3.028,3.028,0,0,0,3.951,2.317l6.568-2.228a3.028,3.028,0,0,0,2-3.432L101.895,41.1a14.849,14.849,0,0,0-9.453-11.172L79.357,25.1H52.8L39.713,29.932A14.853,14.853,0,0,0,30.259,41.1L20.007,95.276a3.028,3.028,0,0,0,2,3.432l6.568,2.228a3.029,3.029,0,0,0,3.951-2.317l6.679-36.069" transform="translate(3.922 4.935)" fill="#94a094"/>
    <path id="Path_166" data-name="Path 166" d="M92.947,62.551l6.679,36.069a3.028,3.028,0,0,0,3.951,2.317l6.568-2.228a3.028,3.028,0,0,0,2-3.432L101.895,41.1a14.849,14.849,0,0,0-9.453-11.172L79.357,25.1H52.8L39.713,29.932A14.853,14.853,0,0,0,30.259,41.1L20.007,95.276a3.028,3.028,0,0,0,2,3.432l6.568,2.228a3.029,3.029,0,0,0,3.951-2.317l6.679-36.069" transform="translate(3.922 4.935)" fill="none" stroke="#373929" stroke-linecap="round" stroke-linejoin="round" stroke-width="1.143"/>
    <rect id="Rectangle_51" data-name="Rectangle 51" width="20.022" height="12.304" transform="translate(59.918 26.43)" fill="#696636"/>
    <rect id="Rectangle_52" data-name="Rectangle 52" width="20.022" height="12.304" transform="translate(59.918 26.43)" fill="none" stroke="#373929" stroke-linecap="round" stroke-linejoin="round" stroke-width="1.143"/>
    <path id="Path_167" data-name="Path 167" d="M70.763,22.089l3.2,3.609-4.2,15.118s-3.587-5.455-9.084-5.088L70.763,22.089H50.6L60.682,35.728c-5.5-.367-9.086,5.088-9.086,5.088L47.4,25.7l3.2-3.609" transform="translate(9.318 4.342)" fill="#94a094"/>
    <path id="Path_168" data-name="Path 168" d="M70.763,22.089l3.2,3.609-4.2,15.118s-3.587-5.455-9.084-5.088L70.763,22.089H50.6L60.682,35.728c-5.5-.367-9.086,5.088-9.086,5.088L47.4,25.7l3.2-3.609" transform="translate(9.318 4.342)" fill="none" stroke="#373929" stroke-linecap="round" stroke-linejoin="round" stroke-width="1.143"/>
    <path id="Path_169" data-name="Path 169" d="M89.783,46.129V97.483a2.228,2.228,0,0,1-2.228,2.228H38.273a2.228,2.228,0,0,1-2.228-2.228V46.129" transform="translate(7.086 9.068)" fill="#94a094"/>
    <path id="Path_170" data-name="Path 170" d="M89.783,46.129V97.483a2.228,2.228,0,0,1-2.228,2.228H38.273a2.228,2.228,0,0,1-2.228-2.228V46.129" transform="translate(7.086 9.068)" fill="none" stroke="#373929" stroke-linecap="round" stroke-linejoin="round" stroke-width="1.143"/>
    <line id="Line_17" data-name="Line 17" y2="0.824" transform="translate(74.997 49.431)" fill="#94a094"/>
    <line id="Line_18" data-name="Line 18" y2="0.824" transform="translate(74.997 49.431)" fill="none" stroke="#373929" stroke-linecap="round" stroke-linejoin="round" stroke-width="1.143"/>
    <line id="Line_19" data-name="Line 19" y2="0.824" transform="translate(74.997 61.135)" fill="#94a094"/>
    <line id="Line_20" data-name="Line 20" y2="0.824" transform="translate(74.997 61.135)" fill="none" stroke="#373929" stroke-linecap="round" stroke-linejoin="round" stroke-width="1.143"/>
    <line id="Line_21" data-name="Line 21" y2="0.824" transform="translate(74.997 72.428)" fill="#94a094"/>
    <line id="Line_22" data-name="Line 22" y2="0.824" transform="translate(74.997 72.428)" fill="none" stroke="#373929" stroke-linecap="round" stroke-linejoin="round" stroke-width="1.143"/>
    <line id="Line_23" data-name="Line 23" y2="0.826" transform="translate(74.997 84.132)" fill="#94a094"/>
    <line id="Line_24" data-name="Line 24" y2="0.826" transform="translate(74.997 84.132)" fill="none" stroke="#373929" stroke-linecap="round" stroke-linejoin="round" stroke-width="1.143"/>
    <line id="Line_25" data-name="Line 25" y2="0.824" transform="translate(74.997 95.063)" fill="#94a094"/>
    <line id="Line_26" data-name="Line 26" y2="0.824" transform="translate(74.997 95.063)" fill="none" stroke="#373929" stroke-linecap="round" stroke-linejoin="round" stroke-width="1.143"/>
    <line id="Line_27" data-name="Line 27" y2="68.71" transform="translate(70 40.069)" fill="#94a094"/>
    <line id="Line_28" data-name="Line 28" y2="68.71" transform="translate(70 40.069)" fill="none" stroke="#373929" stroke-linecap="round" stroke-linejoin="round" stroke-width="1.143"/>
  </g>
</svg>
