<svg xmlns="http://www.w3.org/2000/svg" xmlns:xlink="http://www.w3.org/1999/xlink" width="140" height="140" viewBox="0 0 140 140">
  <defs>
    <clipPath id="clip-path">
      <rect id="Rectangle_48" data-name="Rectangle 48" width="140" height="140" fill="none"/>
    </clipPath>
  </defs>
  <g id="Group_72" data-name="Group 72" transform="translate(-0.075 0.012)">
    <g id="Group_71" data-name="Group 71" transform="translate(0.075 -0.012)" clip-path="url(#clip-path)">
      <path id="Path_132" data-name="Path 132" d="M138.584,69.792A68.792,68.792,0,1,1,69.792,1a68.792,68.792,0,0,1,68.792,68.792" transform="translate(0.122 0.208)" fill="#94a094"/>
      <circle id="Ellipse_1" data-name="Ellipse 1" cx="69.007" cy="69.007" r="69.007" transform="translate(0.993 0.993)" fill="none" stroke="#373929" stroke-linecap="round" stroke-linejoin="round" stroke-width="2"/>
      <path id="Path_133" data-name="Path 133" d="M11.63,92.269A69.139,69.139,0,0,0,28.8,109.175l4.563-7.124L13.51,89.333Z" transform="translate(2.21 17.555)" fill="#696636"/>
      <path id="Path_134" data-name="Path 134" d="M57.652,8.269,79.836,14.8l2.8-9.5a68.63,68.63,0,0,0-22.848-4.27Z" transform="translate(11.247 0.213)" fill="#696636"/>
      <path id="Path_135" data-name="Path 135" d="M108.228,93.268l-1.88-2.935L86.493,103.051l4.281,6.684a69.155,69.155,0,0,0,17.454-16.467" transform="translate(16.911 17.751)" fill="#696636"/>
      <path id="Path_136" data-name="Path 136" d="M66.586,34.579C28.051.67-3.777,51.48,25.3,77.419c9.468,8.446,41.368,36.109,41.368,36.109S98.54,85.865,108.007,77.419C137.084,51.48,105.12.67,66.586,34.579" transform="translate(2.675 4.585)" fill="#b96028"/>
      <path id="Path_137" data-name="Path 137" d="M101.927,74.33a26.377,26.377,0,0,0-1.938-7L87.371,78.576a4.474,4.474,0,0,1-2.144.7c-1.8-.221-3.528-2.069-4.519-3.626C77.744,71,74.371,61.335,69.15,63.092c-2.814.946-4.484,5.66,3.671,16.052,3.027,3.856,3.956,11.013,6.172,14.48,3.946,6.176,9.608,7.415,12.385,12.371l15.988-10.309a35.909,35.909,0,0,1-2.179-5.531c-.945-3.046-2.6-11.941-3.26-15.823" transform="translate(13.051 12.36)" fill="#e3bab1"/>
      <path id="Path_138" data-name="Path 138" d="M62.367,35.578c-1.269,1.3-2.832,2.95-3.362,4.719-1.584,5.289-2.2,15.5-7.7,15.234-2.965-.145-5.855-4.227-.836-16.444,1.863-4.535.81-11.674,2-15.613,2.116-7.018,7.229-9.75,8.552-15.274l18.19,5.568a36.06,36.06,0,0,0-.591,5.916c-.038,1.531.132,4.407.366,7.416-8.98,2.718-14.194,6-16.614,8.479" transform="translate(9.301 1.622)" fill="#ffe3d1"/>
      <path id="Path_139" data-name="Path 139" d="M20.276,74.33a26.377,26.377,0,0,1,1.938-7L34.832,78.576a4.469,4.469,0,0,0,2.144.7c1.8-.221,3.528-2.069,4.519-3.626C44.458,71,47.832,61.335,53.053,63.092c2.814.946,4.484,5.66-3.67,16.052C46.356,83,45.426,90.156,43.21,93.623c-3.946,6.176-9.608,7.415-12.385,12.371L14.837,95.685a35.908,35.908,0,0,0,2.179-5.531c.945-3.046,2.6-11.941,3.26-15.823" transform="translate(2.839 12.36)" fill="#a58783"/>
      <path id="Path_140" data-name="Path 140" d="M94.7,66.568a25.562,25.562,0,0,1,2.079,7.3c.663,3.907,2.34,12.859,3.292,15.923a36.179,36.179,0,0,0,2.2,5.567" transform="translate(18.522 13.084)" fill="none" stroke="#373929" stroke-miterlimit="10" stroke-width="2"/>
      <path id="Path_141" data-name="Path 141" d="M108.664,93.644l-3.021-3.925-19.3,12.445,4.376,8.23" transform="translate(16.882 17.631)" fill="none" stroke="#373929" stroke-miterlimit="10" stroke-width="2"/>
      <path id="Path_142" data-name="Path 142" d="M22.547,66.568a25.562,25.562,0,0,0-2.079,7.3c-.663,3.907-2.34,12.859-3.292,15.923a36.178,36.178,0,0,1-2.2,5.567" transform="translate(2.867 13.084)" fill="none" stroke="#373929" stroke-miterlimit="10" stroke-width="2"/>
      <path id="Path_143" data-name="Path 143" d="M81.721,83.948c-10.42,9.07-20.348,17.673-20.348,17.673s-9.966-8.627-20.41-17.711" transform="translate(7.97 16.49)" fill="none" stroke="#373929" stroke-miterlimit="10" stroke-width="2"/>
      <path id="Path_144" data-name="Path 144" d="M31.257,114.224c2.8-4.985,8.5-6.228,12.473-12.442,2.231-3.487,3.173-10.69,6.222-14.57,8.213-10.453,6.536-15.2,3.705-16.152C48.4,69.288,45,79.01,42.016,83.695c-1,1.567-2.736,3.425-4.551,3.647a4.556,4.556,0,0,1-.955-.042c-4.636-4.047-8.707-7.619-11.21-9.847C-1.63,53.465,23.682,8.178,58.179,28.515" transform="translate(2.675 4.607)" fill="none" stroke="#373929" stroke-miterlimit="10" stroke-width="2"/>
      <path id="Path_145" data-name="Path 145" d="M11,93.644l3.021-3.925,19.3,12.445-4.376,8.23" transform="translate(2.086 17.631)" fill="none" stroke="#373929" stroke-miterlimit="10" stroke-width="2"/>
      <path id="Path_146" data-name="Path 146" d="M74,26.206c-.268-3.079-.471-6.043-.445-7.609a36.2,36.2,0,0,1,.543-5.96" transform="translate(14.37 2.494)" fill="none" stroke="#373929" stroke-miterlimit="10" stroke-width="2"/>
      <path id="Path_147" data-name="Path 147" d="M60.8,8.085c-1.284,5.57-6.4,8.365-8.473,15.446-1.162,3.974-.042,11.15-1.877,15.731-4.945,12.339-2,16.423.985,16.544,5.539.223,6.072-10.063,7.621-15.4a12.457,12.457,0,0,1,.861-1.938,7.575,7.575,0,0,1,1.924-2.386c37.674-30.6,68.127,18.9,39.527,44.376-2.521,2.246-6.63,5.851-11.3,9.934a8.769,8.769,0,0,1-.887-.044c-1.814-.221-3.552-2.079-4.55-3.647C81.643,82.018,78.241,72.3,72.987,74.068c-2.831.955-4.509,5.7,3.705,16.152,3.048,3.88,3.99,11.082,6.222,14.57,3.976,6.214,9.675,7.457,12.473,12.442" transform="translate(9.313 1.6)" fill="none" stroke="#373929" stroke-miterlimit="10" stroke-width="2"/>
      <path id="Path_148" data-name="Path 148" d="M83.27,5.786l-3.994,9.7L57.256,8.967,59.342,1" transform="translate(11.17 0.208)" fill="none" stroke="#373929" stroke-miterlimit="10" stroke-width="2"/>
      <circle id="Ellipse_2" data-name="Ellipse 2" cx="69.007" cy="69.007" r="69.007" transform="translate(0.993 0.993)" fill="none" stroke="#373929" stroke-linecap="round" stroke-linejoin="round" stroke-width="2"/>
    </g>
  </g>
</svg>
