<svg xmlns="http://www.w3.org/2000/svg" xmlns:xlink="http://www.w3.org/1999/xlink" width="140" height="140" viewBox="0 0 140 140">
  <defs>
    <clipPath id="clip-path">
      <rect id="Rectangle_50" data-name="Rectangle 50" width="140" height="140" fill="none"/>
    </clipPath>
  </defs>
  <g id="Group_74" data-name="Group 74" transform="translate(0.099 0.012)">
    <g id="Group_73" data-name="Group 73" transform="translate(-0.099 -0.012)" clip-path="url(#clip-path)">
      <path id="Path_149" data-name="Path 149" d="M138.584,69.792A68.792,68.792,0,1,1,69.792,1a68.792,68.792,0,0,1,68.792,68.792" transform="translate(0.294 0.208)" fill="#94a094"/>
      <circle id="Ellipse_3" data-name="Ellipse 3" cx="69.007" cy="69.007" r="69.007" transform="translate(0.993 0.993)" fill="none" stroke="#373929" stroke-linecap="round" stroke-linejoin="round" stroke-width="2"/>
      <path id="Path_150" data-name="Path 150" d="M109.317,113.872,105.592,102.7a30.257,30.257,0,0,0,1.145-8.543c0-20.3-16.46-45.854-36.765-45.854S33.208,73.851,33.208,94.156a29.922,29.922,0,0,0,1.285,8.978l-3.58,10.739a3.537,3.537,0,0,0,3.356,4.655H49.678c5.817,2.295,12.79,3.306,20.294,3.306s14.479-1.011,20.294-3.306h15.694a3.537,3.537,0,0,0,3.356-4.655" transform="translate(6.132 9.497)" fill="#696636"/>
      <path id="Path_151" data-name="Path 151" d="M86.677,83.338A20.338,20.338,0,1,1,66.338,63,20.338,20.338,0,0,1,86.677,83.338" transform="translate(9.131 12.384)" fill="#f4f1ec"/>
      <ellipse id="Ellipse_4" data-name="Ellipse 4" cx="19.858" cy="20.355" rx="19.858" ry="20.355" transform="translate(55.603 75.461)" fill="none" stroke="#373929" stroke-miterlimit="10" stroke-width="2"/>
      <path id="Path_152" data-name="Path 152" d="M71.671,88.3c0-3.259-1.973-4.754-4.514-5.861l-3.141-1.346c-1.7-.717-3.619-1.524-3.619-3.647,0-1.974,1.616-3.23,4.1-3.23a7.1,7.1,0,0,1,4.994,2.064l1.464-1.766a8.975,8.975,0,0,0-5.489-2.669V68H63.072v3.9c-3.234.512-5.483,2.76-5.483,5.721,0,3.2,2.421,4.756,4.454,5.622l3.17,1.376c2.063.927,3.648,1.645,3.648,3.887,0,2.152-1.735,3.589-4.6,3.589a8.494,8.494,0,0,1-6.041-2.722l-1.674,1.883a10.427,10.427,0,0,0,6.53,3.2V97.91h2.393V94.421c3.839-.456,6.207-2.985,6.207-6.125" transform="translate(11.202 13.366)" fill="#b96028"/>
      <path id="Path_153" data-name="Path 153" d="M65.789,18.49c-4.143-.552-9.2-.787-14.461,4.175-6.1,5.751-8.955,9.923-20.148,15.973L38.5,63.687c13.371-4.356,32.9,1.073,42.413-2.6a6.8,6.8,0,0,0,4.179-5.865c.2-1.524,2.377-3.984,3.626-4.723a7.034,7.034,0,0,0,3.539-5.245c1.328-9.906-2.571-16.536-2.571-16.536s3.146-9.076-5.566-9.56h-8.35s-8.462-.463-9.984-.665" transform="translate(6.221 3.588)" fill="#e3bab1"/>
      <rect id="Rectangle_49" data-name="Rectangle 49" width="7.18" height="28.6" transform="translate(30.164 43.427) rotate(-15.759)" fill="#f4f1ec"/>
      <path id="Path_154" data-name="Path 154" d="M29.128,34.093,4.273,41.107A68.811,68.811,0,0,0,2.629,76.964L38.38,66.873Z" transform="translate(0.294 6.707)" fill="#b96028"/>
      <path id="Path_155" data-name="Path 155" d="M77,11H57.6a1.28,1.28,0,0,0-1.237,1.61L60.974,29.8c4.874.34,9.521.075,12.884-1.436L78.239,12.61A1.28,1.28,0,0,0,77,11" transform="translate(11.158 2.172)" fill="#696636"/>
      <path id="Path_156" data-name="Path 156" d="M51.166,55.167C40.411,64.274,33.208,80,33.208,93.432a29.935,29.935,0,0,0,1.285,8.979l-3.58,10.738a3.538,3.538,0,0,0,3.356,4.656H49.678c5.817,2.293,12.792,3.3,20.294,3.3s14.479-1.011,20.3-3.3h15.693a3.538,3.538,0,0,0,3.356-4.656l-3.724-11.172a30.265,30.265,0,0,0,1.145-8.545c0-15.172-9.192-33.273-22.31-41.453" transform="translate(6.132 10.219)" fill="none" stroke="#373929" stroke-miterlimit="10" stroke-width="2"/>
      <path id="Path_157" data-name="Path 157" d="M76.978,24.3s-6.571,4.18-18.545,2.8" transform="translate(11.573 4.784)" fill="none" stroke="#373929" stroke-miterlimit="10" stroke-width="2"/>
      <path id="Path_158" data-name="Path 158" d="M37.572,63.455c12.94-4.418,31.61,1.534,42.083-2.394a7.3,7.3,0,0,0,4.672-6.084A5.139,5.139,0,0,1,86.82,51.23a7.55,7.55,0,0,0,3.96-5.438c1.62-10.18-2.211-17.05-2.211-17.05s4.038-8.935-6.219-9.724a7.432,7.432,0,0,0-2.393,0" transform="translate(7.476 3.724)" fill="none" stroke="#373929" stroke-miterlimit="10" stroke-width="2"/>
      <path id="Path_159" data-name="Path 159" d="M63.015,18.36c-4.047-.3-7.684.416-13.214,6.579A55.466,55.466,0,0,1,31.482,38.455" transform="translate(6.28 3.606)" fill="none" stroke="#373929" stroke-miterlimit="10" stroke-width="2"/>
      <path id="Path_160" data-name="Path 160" d="M25.379,36.226l6.9-1.947,7.754,27.469-6.9,1.947" transform="translate(5.082 6.744)" fill="none" stroke="#373929" stroke-miterlimit="10" stroke-width="2"/>
      <path id="Path_161" data-name="Path 161" d="M2.263,76.572,38.412,66.428,29.178,33.714l-24.9,7.029" transform="translate(0.542 6.633)" fill="none" stroke="#373929" stroke-miterlimit="10" stroke-width="2"/>
      <path id="Path_162" data-name="Path 162" d="M60.974,29.8,56.365,12.61A1.281,1.281,0,0,1,57.6,11H77a1.281,1.281,0,0,1,1.237,1.61L73.883,28.946" transform="translate(11.158 2.172)" fill="none" stroke="#373929" stroke-miterlimit="10" stroke-width="2"/>
      <path id="Path_163" data-name="Path 163" d="M4.74,87.244a68.939,68.939,0,0,1,8.009-60.892" transform="translate(0.294 5.187)" fill="none" stroke="#373929" stroke-linecap="round" stroke-linejoin="round" stroke-width="2"/>
    </g>
  </g>
</svg>
